<?xml version="1.0" encoding="utf-8"?>
<svg xmlns="http://www.w3.org/2000/svg" xmlns:xlink="http://www.w3.org/1999/xlink" version= "1.1" width="2000px" height="1295px" viewBox="-640 65 2000 1295">
<g id="layer1">
<g style="fill:rgb(0,178,230); fill-opacity:1.0; stroke-linejoin: miter">
<path d="M-640.001,63.427246C-640.41785,63.427246,-640.8176,63.592842,-641.11237,63.887604C-641.4071,64.182365,-641.57275,64.582146,-641.57275,64.999L-641.5718,1360.0C-641.5718,1360.868,-640.86804,1361.5718,-640.0,1361.5718L1360.001,1361.5728C1360.4178,1361.5728,1360.8176,1361.4072,1361.1124,1361.1124C1361.4072,1360.8176,1361.5728,1360.4178,1361.5728,1360.001L1361.5718,65.0C1361.5718,64.13194,1360.868,63.428246,1360.0,63.428246L-640.001,63.427246 Z"/>
</g>
</g>
<g id="layer2">
<g style="fill:rgb(0,0,0); fill-opacity:0.5058824; stroke-linejoin: miter">
<path d="M589.78094,313.51813L581.0614,313.55414Q506.93274,313.84464,438.3686,337.20224Q394.3539,349.17017,314.66138,393.89017Q251.24234,395.5295,244.0935,398.32394Q216.44226,410.61902,218.64539,423.9516Q220.91199,436.4422,223.04932,438.10986Q247.05508,406.46042,270.06808,423.19586Q222.57828,435.3808,241.72601,472.5346Q260.98044,434.11316,288.94406,439.64508Q254.06836,469.4402,289.06015,484.5025Q286.6345,458.10345,309.03162,455.17017Q316.73288,454.0625,328.90234,456.1936Q315.2862,480.909,317.64935,483.6551Q331.79895,483.54626,342.01685,477.86035Q350.63266,479.56018,354.50494,446.34808L367.21588,435.0061Q406.3736,407.83438,444.97375,398.26456Q576.63306,377.81055,641.9714,418.47595Q694.7484,450.8297,706.3167,546.65027Q662.4734,450.77747,626.0887,449.25873Q527.89044,440.64917,503.09564,511.77887Q492.21204,539.81885,541.48303,575.1652L570.96515,578.2726Q570.09753,563.34174,583.29083,568.97217Q583.4692,556.044,585.86835,557.39655Q589.48486,554.6969,595.31415,559.4336L595.486,549.58203Q599.1675,547.1801,604.03174,552.3019Q617.3285,576.08154,612.8538,586.129Q604.961,598.36914,582.5808,600.709Q580.9752,601.5516,581.3752,604.9218L614.97125,635.1936Q554.0057,610.2025,471.82074,597.6795Q412.56158,590.84247,280.63446,604.8867L271.07394,600.81995L254.00854,572.1475Q246.67392,564.7004,239.04959,564.94965Q229.3906,562.954,206.35236,583.93427Q239.05371,578.36426,237.31952,584.64294Q247.65927,589.711,231.71985,607.81134Q228.56036,609.5754,216.5625,608.94116Q185.47537,597.1895,174.30524,598.8049Q152.3626,607.3492,145.61186,629.55023Q145.63884,631.2677,146.66483,631.2435Q152.48769,625.46045,177.31628,619.74744Q189.58789,620.25916,206.07504,633.3473Q157.40807,628.357,152.84886,665.9829Q152.73213,669.9448,153.63686,669.4628Q163.12459,656.7872,174.81976,653.90393Q196.33978,651.6515,202.81033,657.66675Q187.96951,668.8073,185.68918,683.383Q180.44626,693.34845,199.61383,725.1881Q190.57938,679.1572,224.28351,671.9315Q215.17953,696.7307,230.99634,719.452Q246.67123,658.9987,278.07416,662.9607Q405.5946,629.3175,489.2849,656.8269Q548.2094,662.70123,646.9822,784.7953Q753.28235,935.7312,690.3273,1062.6375Q646.58936,1139.4089,558.36584,1202.5746Q472.98822,1268.0469,354.5079,1329.1377L656.49316,1329.1364Q799.24695,1251.1245,918.64185,1100.0682Q1031.4218,924.70984,1022.33435,753.7156Q1020.2057,589.4828,865.3826,433.43018Q794.5902,366.76288,714.7109,337.13184Q696.1608,323.9372,589.78094,313.51813 Z"/>
</g>
<g style="fill:rgb(0,0,0); fill-opacity:0.57254905; stroke-linejoin: miter">
<path d="M725.2666,1324.4849L721.1709,1326.2678Q689.93915,1331.7631,550.7658,1334.8882Q422.08145,1337.916,229.72906,1337.5698Q54.111298,1336.8765,-56.077072,1333.3004Q-78.468,1332.619,-101.330185,1331.522Q-115.86305,1331.034,-150.59892,1328.4908Q-173.96255,1326.4443,-172.04034,1324.3287Q-165.79005,1318.8463,-40.368206,1315.2257Q89.71745,1311.4198,276.59753,1311.343Q343.83084,1311.3179,433.41656,1312.1727Q513.9318,1313.2233,524.71014,1313.4938Q563.95496,1314.319,593.8546,1315.1923Q718.8238,1318.7856,725.2666,1324.4849"/>
</g>
<g style="fill:rgb(0,0,0); fill-opacity:0.99607843; stroke-linejoin: miter">
<path d="M249.29681,907.6575L245.12595,906.99Q226.34058,904.0707,216.65317,898.74426Q204.85403,893.0051,194.88052,879.0767Q191.62518,874.4072,188.9049,868.983L186.3732,863.41406Q184.00262,857.67865,182.496,851.4537Q179.64984,835.59625,180.46796,832.121Q180.66809,825.49396,182.28012,818.82025Q185.69046,805.3417,194.28754,792.99805Q195.83707,789.5078,209.11761,776.17865Q214.71506,771.1278,220.93515,767.08606Q246.26074,750.61206,276.9646,755.9412Q313.80505,761.4588,364.2259,795.38306L249.29681,907.6575"/>
</g>
<g style="fill:rgb(240,196,169); fill-opacity:1.0; stroke-linejoin: miter">
<path d="M230.90585,884.11194L230.17502,886.1454Q223.83084,902.5708,234.51941,906.32336Q239.19006,908.41504,246.10022,909.8048Q275.25775,914.9895,274.5559,915.30334L298.07825,922.33374Q302.62915,923.3699,306.7834,923.0945L326.99014,920.1068L352.7334,918.90076Q359.71548,918.2439,365.91238,915.83765Q373.9647,913.3871,383.27402,900.23804Q389.17007,890.9509,394.19992,880.20557L445.8203,798.8808L407.58014,802.09125L333.45764,784.658Q312.7675,764.33746,303.59943,769.0276Q298.3419,771.6335,296.08517,777.3272Q294.23016,783.75836,295.73608,786.09546Q298.7867,793.127,313.37936,799.7265Q278.14307,804.6876,267.51196,808.2404Q252.49316,812.6263,245.8598,820.04407Q241.13837,824.35864,238.0911,835.53046Q236.43756,840.4938,234.66342,868.38055Q233.93741,874.62634,230.90585,884.11194"/>
</g>
<g style="fill:rgb(255,0,35); fill-opacity:0.15294118; stroke-linejoin: miter">
<path d="M383.38687,884.29785L375.81216,839.8929L411.7907,831.73505L383.38687,884.29785"/>
</g>
<g style="fill:rgb(0,0,0); fill-opacity:0.99607843; stroke-linejoin: miter">
<path d="M420.75952,849.67035L420.75952,849.67053Q404.77283,861.5291,388.78595,873.3865Q394.74774,834.474,400.7097,795.5618Q420.3407,803.1257,439.9718,810.68994L420.75952,849.67035"/>
</g>
<g style="fill:rgb(240,196,169); fill-opacity:1.0; stroke-linejoin: miter">
<path d="M103.92006,1315.905L-23.938713,1327.6224L-67.632,1316.2333Q-8.737022,1286.0529,17.65332,1273.7103Q44.26532,1261.1145,52.55461,1260.5575Q55.978043,1260.4404,56.759293,1261.4934Q57.93135,1262.3046,57.86151,1265.9327L103.92006,1315.905"/>
</g>
<g style="fill:rgb(255,255,255); fill-opacity:1.0; stroke-linejoin: miter">
<path d="M177.16293,1015.29834L177.16293,1015.2986L69.88826,1089.4702Q95.518524,1110.3724,121.14868,1131.274L177.16293,1015.29834"/>
</g>
<g style="fill:rgb(255,255,255); fill-opacity:1.0; stroke-linejoin: miter">
<path d="M579.7559,1271.6213L584.6217,1266.29Q624.1885,1225.864,626.3026,1143.3905Q628.2173,1072.816,622.956,1036.0276Q615.23114,979.0325,611.56726,968.89575Q606.4398,947.36084,599.3445,928.3816Q577.3783,872.6053,539.39996,845.50433Q514.3708,826.93,485.7738,814.76324Q478.8476,811.3212,442.43207,797.3148L412.47827,790.74664L407.25592,828.3224L335.87653,964.0188L579.7559,1271.6213"/>
</g>
<g style="fill:rgb(0,0,0); fill-opacity:0.99607843; stroke-linejoin: miter">
<path d="M33.49539,1259.8195L33.49539,1259.8196L33.49539,1259.8197L33.49539,1259.8195"/>
</g>
<g style="fill:rgb(0,0,0); fill-opacity:0.99607843; stroke-linejoin: miter">
<path d="M35.38704,1260.1603L35.38704,1260.1605L35.38704,1260.1605L35.38704,1260.1603"/>
</g>
<g style="fill:rgb(0,0,0); fill-opacity:0.99607843; stroke-linejoin: miter">
<path d="M37.541946,1263.3827L49.05066,1265.713Q64.93556,1304.4624,83.98276,1315.1377Q91.746704,1320.3369,99.95308,1324.8446Q106.16081,1326.2543,118.99695,1313.5566Q167.23453,1261.4697,221.17935,1171.0872Q247.70483,1125.135,266.60162,1053.7959Q326.14664,1206.8363,349.87576,1251.2638Q378.31607,1307.7522,407.22226,1322.077Q454.6407,1346.1106,508.25018,1323.8274Q557.0828,1301.5781,607.78296,1236.185Q617.9058,1222.4508,615.809,1212.4786L512.5494,1134.0522Q413.52728,1007.54004,358.93903,957.78894Q307.6452,913.5575,284.5175,912.7312Q262.53622,907.2582,236.15775,921.4094Q209.3082,937.60205,182.9996,976.2416Q129.83948,1053.1921,37.541946,1263.3827"/>
</g>
<g style="fill:rgb(255,255,255); fill-opacity:1.0; stroke-linejoin: miter">
<path d="M602.0138,1134.0227L604.8717,1138.5961Q624.80853,1167.963,623.74695,1192.2202Q624.1469,1200.1067,616.58997,1220.7513Q610.7716,1235.6085,594.8882,1263.7808L502.48364,1143.4816L476.10614,1071.0776L602.0138,1134.0227"/>
</g>
<g style="fill:rgb(255,255,255); fill-opacity:1.0; stroke-linejoin: miter">
<path d="M477.7918,1010.06946L310.80948,1142.2548L90.63736,1145.3047L120.98659,1081.7208L274.0423,1057.6082Q317.15997,990.8544,336.1067,959.84143Q355.51956,928.4065,389.12106,870.2649L477.7918,1010.06946"/>
</g>
<g style="fill:rgb(240,196,169); fill-opacity:1.0; stroke-linejoin: miter">
<path d="M123.44707,1122.025L85.854294,1131.494L74.982254,1182.2825L39.548477,1156.2163Q35.62207,1136.9341,34.991776,1126.7616Q33.946884,1114.452,36.97464,1103.5679Q40.15576,1092.5658,48.438354,1084.9316Q51.20677,1082.4485,54.56511,1080.5248L58.0737,1078.7634Q61.731155,1077.154,65.995575,1076.2418Q82.29976,1071.7046,131.88516,1083.2438L123.44707,1122.025"/>
</g>
<g style="fill:rgb(240,196,169); fill-opacity:1.0; stroke-linejoin: miter">
<path d="M133.37636,1142.4045L152.25136,1156.4404L106.57846,1201.7517Q101.01886,1198.4216,95.826614,1194.7927Q81.71811,1184.6748,79.237686,1172.9517Q77.59897,1168.3956,77.7549,1154.5278Q78.39203,1142.2318,80.268845,1128.9277L113.6812,1122.2777L133.37636,1142.4045"/>
</g>
<g style="fill:rgb(0,0,0); fill-opacity:0.99607843; stroke-linejoin: miter">
<path d="M285.52048,758.9097L285.52057,758.91016L285.52063,758.9106L285.52048,758.9097"/>
</g>
<g style="fill:rgb(0,0,0); fill-opacity:0.99607843; stroke-linejoin: miter">
<path d="M284.3663,854.2266L284.36652,854.22687Q283.7663,847.97314,283.68118,844.74005Q283.6414,843.441,283.6597,842.1985L283.69598,840.97327Q283.7488,839.7642,283.88135,838.6323L284.03632,837.52234L284.2312,836.45074L284.46228,835.415Q284.71167,834.39624,285.01907,833.4338Q285.773,831.0141,287.5772,827.0921L284.3663,854.2266"/>
</g>
<g style="fill:rgb(0,0,0); fill-opacity:0.99607843; stroke-linejoin: miter">
<path d="M293.4713,850.45447L293.4714,850.45447Q295.20004,846.7493,295.88586,844.68884Q296.16678,843.86475,296.38327,843.04004L296.5798,842.2154L296.73627,841.39044L296.84845,840.56506L296.91388,839.73914L296.93515,838.9131L296.91635,838.0869Q296.87756,837.26056,296.77448,836.4334Q296.53293,834.3664,295.60367,830.64185L293.4713,850.45447"/>
</g>
<g style="fill:rgb(0,0,0); fill-opacity:0.99607843; stroke-linejoin: miter">
<path d="M352.14453,853.70984L352.14468,853.70984L352.1448,853.70984L352.14453,853.70984"/>
</g>
<g style="fill:rgb(0,0,0); fill-opacity:0.99607843; stroke-linejoin: miter">
<path d="M281.75327,878.85144L281.75327,878.8512Q279.8123,884.82635,279.02875,887.9643Q278.7084,889.22375,278.45697,890.4408L278.22693,891.64465Q278.01654,892.8367,277.9006,893.9701L277.8115,895.0875L277.7695,896.17566L277.7706,897.2374Q277.7933,898.2855,277.88492,899.29175Q278.09653,901.81714,279.00803,906.037L281.75327,878.85144"/>
</g>
<g style="fill:rgb(0,0,0); fill-opacity:0.99607843; stroke-linejoin: miter">
<path d="M289.82434,884.5072L289.8244,884.5071Q290.7093,888.49884,290.9324,890.65894Q291.02783,891.5244,291.06073,892.37634L291.07382,893.224L291.04767,894.06323L290.97842,894.89343L290.86343,895.71375L290.70523,896.5248L290.5078,897.3274Q290.29077,898.12573,290.01096,898.91064Q289.32724,900.87634,287.61298,904.31116L289.82434,884.5072"/>
</g>
<g style="fill:rgb(255,0,0); fill-opacity:0.18039216; stroke-linejoin: miter">
<path d="M326.2027,887.6481L332.78275,884.54407L339.36282,881.4398Q334.3561,875.83405,329.3495,870.2285Q330.16818,874.613,330.98688,878.9976Q328.59482,883.32263,326.2027,887.6481"/>
</g>
<g style="fill:rgb(255,0,0); fill-opacity:0.21176471; stroke-linejoin: miter">
<path d="M364.86618,875.33527L364.87012,876.3046Q364.88947,879.8556,364.6782,882.2553Q364.43555,884.5668,364.3024,885.27405Q364.04166,886.79926,363.55334,888.7308Q362.33795,893.33105,358.33286,902.75085L364.86618,875.33527"/>
</g>
<g style="fill:rgb(255,0,0); fill-opacity:0.99607843; stroke-linejoin: miter">
<path d="M388.88263,897.06604L388.88275,897.06604L388.88297,897.0663L388.88263,897.06604"/>
</g>
<g style="fill:rgb(0,0,0); fill-opacity:0.99607843; stroke-linejoin: miter">
<path d="M229.69562,773.52423L231.18945,778.114Q234.47525,792.47797,227.35553,804.74023Q220.16153,817.0248,205.39575,821.1776Q191.03156,824.4634,178.76947,817.3438Q174.8288,815.03314,171.56168,811.7542L168.51791,808.25665Q165.67006,804.52893,163.8257,799.97394Q158.55919,785.83673,164.1209,772.8116Q169.68234,759.7867,183.53586,753.814Q197.673,748.5475,210.69788,754.1091Q223.72275,759.67053,229.69562,773.52423"/>
</g>
</g>
</svg>